<svg xmlns="http://www.w3.org/2000/svg" xmlns:svg="http://www.w3.org/2000/svg" id="SVGRoot" width="64" height="64" version="1.1" viewBox="0 0 64 64"><g id="layer1"><g id="g3699" transform="matrix(-1,0,0,1,78.513873,-2.8513122)"><path style="fill:none;stroke:#fff;stroke-width:1;stroke-linecap:square;stop-color:#000" id="path1660" d="m 30.141868,12.978181 c 14.494394,-1.150235 14.279704,11.10915 12.398736,17.726188 -1.811897,6.374057 -1.014423,8.596418 -3.989219,11.681623 C 35.57659,45.471196 28.068583,46.316195 24.159832,42.123198 21.531192,39.303401 21.197535,35.865302 19.751164,31.11657 17.067937,22.306985 19.888772,13.791838 30.141868,12.978181 Z"/><path style="fill:none;stroke:#fff;stroke-width:1;stroke-linecap:square;stop-color:#000" id="path3273" d="m 34.049842,27.080668 c 0.01551,1.045547 0.30038,1.817774 0.538426,2.018566 2.96671,2.50248 -1.324581,6.211798 -3.858385,3.634784"/><path style="fill:none;stroke:#fff;stroke-width:1;stroke-linecap:square;stop-color:#000" id="path3273-3" d="m 37.164979,36.569026 c -1.967047,3.259348 -6.756567,4.047549 -9.731686,0.636254"/><path style="fill:none;stroke:#fff;stroke-width:1;stroke-linecap:square;stop-color:#000" id="path3547-3" d="m 40.199316,26.313676 c -0.388768,-3.372612 -6.017232,-3.133673 -6.152333,0.105298 1.343476,1.302451 4.337462,1.588922 6.152333,-0.105298 z"/><circle style="fill:#fff;stroke:#fff;stroke-width:1;stroke-linecap:square;stop-color:#000" id="path3815-2" cx="38.23" cy="24.973" r=".756"/><path style="fill:none;stroke:#fff;stroke-width:1;stroke-linecap:square;stop-color:#000" id="path3942" d="m 22.945748,26.975799 c 1.558284,-1.635375 3.950982,-0.881145 5.303076,-0.489844" transform="translate(-0.44861459,-3.114008)"/><path style="fill:none;stroke:#fff;stroke-width:1;stroke-linecap:square;stop-color:#000" id="path3942-6" d="m 34.747591,24.816768 c 2.776779,-1.22921 3.865192,-0.537986 5.217286,-0.146685" transform="translate(-0.44861459,-3.114008)"/><path style="fill:none;stroke:#fff;stroke-width:1;stroke-linecap:square;stop-color:#000" id="path3547" d="m 23.863975,27.401137 c 1.247052,-0.451474 2.360861,-0.958122 5.662969,-0.737701 -2.165218,-1.038664 -3.89347,-1.221316 -5.219284,-1.071852"/></g><g id="layer1-3" transform="translate(2.9179447,15.113792)" style="display:inline"><path style="opacity:1;fill:none;stroke:#fff;stroke-width:1;stroke-linecap:round;stroke-linejoin:round;stop-color:#000" id="path26" d="m 5,1 v 35.963506 l 7.440725,-7.440725 6.200605,8.680846 7.440725,-3.720363 -4.960483,-7.440725 h 12.401209 z"/><path style="display:none;opacity:1;fill:none;stroke:#000;stroke-width:2;stroke-linecap:round;stroke-linejoin:round;stop-color:#000" id="path851" d="M 5,18.977829 C 13.15721,22.499704 17,16 17,16"/><circle style="display:none;opacity:1;fill:#000;stroke:none;stroke-width:2;stroke-linecap:round;stroke-linejoin:round;stop-color:#000" id="path977" cx="8.356" cy="13.886" r="1.726"/><circle style="display:none;fill:#000;stroke:none;stroke-width:2;stroke-linecap:round;stroke-linejoin:round;stop-color:#000" id="path977-3" cx="12.984" cy="13.836" r="1.872"/></g><g id="g6" transform="translate(0,2)"><path style="fill:none;stroke:#fff;stroke-width:1;stroke-linecap:square;stop-color:#000" id="path4096-9-9" d="M 8,6 V 9"/><path style="fill:none;stroke:#fff;stroke-width:1;stroke-linecap:square;stop-color:#000" id="path4096-9-9-95" d="m 2.5,12 h 3"/><path style="fill:none;stroke:#fff;stroke-width:1;stroke-linecap:square;stop-color:#000" id="path4096-9-9-95-2" d="m 10.5,12 h 3"/><path style="fill:none;stroke:#fff;stroke-width:1;stroke-linecap:square;stop-color:#000" id="path4096-9-9-9" d="M 12.236068,8 10,10"/><path style="fill:none;stroke:#fff;stroke-width:1;stroke-linecap:square;stop-color:#000" id="path4096-9-9-4" d="M 4,7.763932 6,10"/></g></g></svg>